# xmcd CD database file
#
# Track frame offsets:
#	150
#	16523
#	33737
#	48081
#	64188
#	84127
#	101760
#	120059
#	138383
#	156040
#	175219
#	195651
#	212050
#
# Disc length: 3056 seconds
#
# Revision: 0
# Processed by: cddbd v1.5.2PL0 Copyright (c) Steve Scherf et al.
# Submitted via: CDex 1.51
#
DISCID=9c0bee0d
DTITLE=Presuntos Implicados - Versión original
DYEAR=1999
DGENRE=Blues
TTITLE0=Esta tarde ví llover
TTITLE1=La felicidad
TTITLE2=Te recuerdo Amanda
TTITLE3=Esperaré
TTITLE4=Samurai
TTITLE5=Canciones y momentos
TTITLE6=Hazme la noche
TTITLE7=Por querer
TTITLE8=Nadie como tú
TTITLE9=Vereda tropical
TTITLE10=Hasta el fin del amor
TTITLE11=Pecado
TTITLE12=Esperaré con Armando Manzanares
EXTD=YEAR: 1999
EXTT0=
EXTT1=
EXTT2=
EXTT3=
EXTT4=
EXTT5=
EXTT6=
EXTT7=
EXTT8=
EXTT9=
EXTT10=
EXTT11=
EXTT12=
PLAYORDER=
